<svg width="169" height="147" viewBox="0 0 169 137" fill="none" xmlns="http://www.w3.org/2000/svg">
<path d="M64.9344 57.0887V52.2985H53.7247V45H84.249V52.2985H73.038V57.0848C82.1492 57.4937 89 59.257 89 61.3694C89 63.4817 82.1459 65.245 73.038 65.6565V81H64.9317V65.6552C55.8369 65.245 49 63.483 49 61.3726C49 59.2622 55.8369 57.5002 64.9317 57.0899L64.9344 57.0887ZM64.9317 64.3556V64.3518C65.1604 64.3659 66.3355 64.4349 68.9519 64.4349C71.0437 64.4349 72.5153 64.3769 73.034 64.3505V64.3569C81.0836 64.0085 87.0921 62.6387 87.0921 60.9997C87.0921 59.3607 81.0829 57.9928 73.034 57.6438V62.9923C72.5068 63.0277 70.9989 63.1146 68.9176 63.1146C66.4179 63.1146 65.1611 63.0129 64.9304 62.9923V57.6438C56.8967 57.9935 50.902 59.3646 50.902 60.9978C50.902 62.631 56.8993 64.0027 64.9304 64.3524" fill="#E7E8E8"/>
<path d="M69 0C56.7376 0 44.7505 3.63623 34.5547 10.4489C24.3588 17.2615 16.4121 26.9446 11.7195 38.2736C7.02686 49.6027 5.79906 62.0688 8.19134 74.0956C10.5836 86.1224 16.4886 97.1698 25.1594 105.841C33.8303 114.512 44.8776 120.416 56.9044 122.809C68.9313 125.201 81.3974 123.973 92.7264 119.281C104.055 114.588 113.739 106.641 120.551 96.4454C127.364 86.2495 131 74.2625 131 62C130.98 45.5626 124.442 29.8041 112.819 18.1811C101.196 6.55814 85.4374 0.0196894 69 0ZM122.527 57.8667H114.26C113.773 52.716 112.417 47.6849 110.251 42.9867L117.401 38.812C120.269 44.7935 122.007 51.2536 122.527 57.8667ZM99.3387 17.6907C104.804 21.4617 109.538 26.1957 113.309 31.6613L106.117 35.7947C103.104 31.5827 99.4174 27.896 95.2054 24.8827L99.3387 17.6907ZM73.1334 8.47333C79.7465 8.993 86.2066 10.7306 92.188 13.5987L88.0134 20.7493C83.3152 18.5827 78.2841 17.2271 73.1334 16.74V8.47333ZM64.8667 8.47333V16.74C59.716 17.2271 54.6849 18.5827 49.9867 20.7493L45.812 13.5987C51.7935 10.7306 58.2536 8.993 64.8667 8.47333ZM38.6614 17.6907L42.7947 24.8827C38.5827 27.896 34.896 31.5827 31.8827 35.7947L24.6907 31.6613C28.4617 26.1957 33.1957 21.4617 38.6614 17.6907ZM20.5987 38.812L27.7494 42.9867C25.5827 47.6849 24.2271 52.716 23.74 57.8667H15.4734C15.993 51.2536 17.7307 44.7935 20.5987 38.812ZM15.4734 66.1334H23.74C24.2271 71.2841 25.5827 76.3152 27.7494 81.0134L20.5987 85.188C17.7307 79.2066 15.993 72.7465 15.4734 66.1334ZM38.6614 106.309C33.1957 102.538 28.4617 97.8044 24.6907 92.3387L31.8827 88.2054C34.896 92.4174 38.5827 96.1041 42.7947 99.1174L38.6614 106.309ZM64.8667 115.527C58.2536 115.007 51.7935 113.269 45.812 110.401L49.9867 103.251C54.6849 105.417 59.716 106.773 64.8667 107.26V115.527ZM31.8 62C31.8 54.6426 33.9818 47.4503 38.0694 41.3328C42.157 35.2153 47.9668 30.4473 54.7642 27.6317C61.5616 24.8161 69.0413 24.0794 76.2574 25.5148C83.4735 26.9502 90.1019 30.4931 95.3044 35.6956C100.507 40.8982 104.05 47.5266 105.485 54.7427C106.921 61.9588 106.184 69.4384 103.368 76.2358C100.553 83.0333 95.7848 88.8431 89.6673 92.9307C83.5498 97.0183 76.3575 99.2 69 99.2C59.1387 99.1847 49.6856 95.2605 42.7126 88.2875C35.7395 81.3145 31.8153 71.8614 31.8 62ZM73.1334 115.527V107.26C78.2841 106.773 83.3152 105.417 88.0134 103.251L92.188 110.401C86.2066 113.269 79.7465 115.007 73.1334 115.527ZM99.3387 106.309L95.2054 99.1174C99.4174 96.1041 103.104 92.4174 106.117 88.2054L113.309 92.3387C109.538 97.8044 104.804 102.538 99.3387 106.309ZM117.401 85.188L110.251 81.0134C112.417 76.3152 113.773 71.2841 114.26 66.1334H122.527C122.007 72.7465 120.269 79.2066 117.401 85.188Z" fill="#11171D" fill-opacity="0.1"/>
<path d="M95.4337 88.2093L109.633 102.408C109.915 102.693 110.277 102.886 110.671 102.963C111.065 103.04 111.472 102.996 111.841 102.838C112.212 102.687 112.53 102.429 112.755 102.097C112.979 101.766 113.101 101.375 113.103 100.974L113.103 94.8928L159.4 94.8928C159.936 94.8912 160.45 94.6777 160.828 94.2988C161.207 93.9199 161.421 93.4064 161.422 92.8706L161.422 80.6797C161.42 80.1475 161.209 79.6376 160.834 79.2598C160.452 78.8808 159.938 78.6648 159.4 78.6574L113.103 78.6574L113.103 72.5763C113.101 72.1756 112.979 71.7847 112.755 71.4528C112.53 71.121 112.212 70.8631 111.841 70.7118C111.472 70.5539 111.065 70.5105 110.671 70.5872C110.277 70.6639 109.915 70.8572 109.633 71.142L95.4337 85.3409C95.0534 85.7213 94.8397 86.2372 94.8397 86.7751C94.8397 87.3131 95.0533 87.829 95.4337 88.2093Z" fill="#48B190"/>
</svg>
