<svg width="17" height="18" viewBox="0 0 17 18" fill="none" xmlns="http://www.w3.org/2000/svg">
<path d="M2.25 5.0625C2.25 3.09825 3.84825 1.5 5.8125 1.5H12.6623C12.4155 0.63675 11.6288 0 10.6875 0H2.0625C0.92475 0 0 0.92475 0 2.0625V13.6875C0 14.8253 0.92475 15.75 2.0625 15.75H2.25V5.0625Z" fill="#ED9F43"/>
<path d="M14.4377 3H5.81274C4.67499 3 3.75024 3.92475 3.75024 5.0625V15.9375C3.75024 17.0753 4.67499 18 5.81274 18H14.4377C15.5755 18 16.5002 17.0753 16.5002 15.9375V5.0625C16.5002 3.92475 15.5755 3 14.4377 3ZM12.9377 15.75H7.31274C7.00224 15.75 6.75024 15.498 6.75024 15.1875C6.75024 14.877 7.00224 14.625 7.31274 14.625H12.9377C13.2482 14.625 13.5002 14.877 13.5002 15.1875C13.5002 15.498 13.2482 15.75 12.9377 15.75ZM12.9377 12.75H7.31274C7.00224 12.75 6.75024 12.498 6.75024 12.1875C6.75024 11.877 7.00224 11.625 7.31274 11.625H12.9377C13.2482 11.625 13.5002 11.877 13.5002 12.1875C13.5002 12.498 13.2482 12.75 12.9377 12.75ZM12.9377 10.125H7.31274C7.00224 10.125 6.75024 9.873 6.75024 9.5625C6.75024 9.252 7.00224 9 7.31274 9H12.9377C13.2482 9 13.5002 9.252 13.5002 9.5625C13.5002 9.873 13.2482 10.125 12.9377 10.125ZM12.9377 7.125H7.31274C7.00224 7.125 6.75024 6.873 6.75024 6.5625C6.75024 6.252 7.00224 6 7.31274 6H12.9377C13.2482 6 13.5002 6.252 13.5002 6.5625C13.5002 6.873 13.2482 7.125 12.9377 7.125Z" fill="#ED9F43"/>
</svg>
