<svg width="24" height="24" xmlns="http://www.w3.org/2000/svg">

 <g>
  <title>Layer 1</title>
  <path fill="#808080" id="svg_1" d="m17.9,17.39c-0.26,-0.8 -1.01,-1.39 -1.9,-1.39l-1,0l0,-3a1,1 0 0 0 -1,-1l-6,0l0,-2l2,0a1,1 0 0 0 1,-1l0,-2l2,0a2,2 0 0 0 2,-2l0,-0.41c2.93,1.18 5,4.05 5,7.41c0,2.08 -0.8,3.97 -2.1,5.39m-6.9,2.54c-3.95,-0.49 -7,-3.85 -7,-7.93c0,-0.62 0.08,-1.22 0.21,-1.79l4.79,4.79l0,1a2,2 0 0 0 2,2m1,-16a10,10 0 0 0 -10,10a10,10 0 0 0 10,10a10,10 0 0 0 10,-10a10,10 0 0 0 -10,-10z"/>
 </g>
</svg>