<svg width="17" height="11" viewBox="0 0 17 11" fill="none" xmlns="http://www.w3.org/2000/svg">
<path d="M11.2688 5.58201L16.9999 8.99195V2.02808L11.2688 5.58201Z" fill="#48B190"/>
<path d="M0 2.02808V8.99195L5.73112 5.58201L0 2.02808Z" fill="#48B190"/>
<path d="M15.9375 0H1.06249C0.532298 0 0.111548 0.371993 0.0318604 0.850985L8.49998 6.10189L16.9681 0.850985C16.8884 0.371993 16.4677 0 15.9375 0Z" fill="#48B190"/>
<path d="M10.2956 6.18606L8.79212 7.11804C8.70288 7.17304 8.60194 7.20004 8.49994 7.20004C8.39794 7.20004 8.297 7.17304 8.20775 7.11804L6.70431 6.18506L0.0339355 10.156C0.115748 10.631 0.534373 11 1.06244 11H15.9374C16.4655 11 16.8841 10.631 16.9659 10.156L10.2956 6.18606Z" fill="#48B190"/>
</svg>
