<svg width="104" height="18" viewBox="0 0 104 18" fill="none" xmlns="http://www.w3.org/2000/svg">
<path d="M0 17.7837H2.17717V0H0V17.7837Z" fill="#48B190"/>
<path d="M17.8502 11.1749C17.8502 7.01736 14.9553 4.39786 11.223 4.39786C7.51467 4.39786 4.59583 7.01736 4.59583 11.1749C4.59583 15.3565 7.41897 18 11.1273 18C14.8596 18 17.8502 15.3565 17.8502 11.1749ZM6.82085 11.1749C6.82085 7.85848 8.90232 6.29639 11.1991 6.29639C13.4481 6.29639 15.6252 7.85848 15.6252 11.1749C15.6252 14.5154 13.4002 16.0774 11.1273 16.0774C8.85447 16.0774 6.82085 14.5154 6.82085 11.1749Z" fill="#48B190"/>
<path d="M19.4209 11.1749C19.4209 15.3565 22.0765 18 25.8088 18C29.0626 18 31.1919 16.1736 31.8618 13.5541H29.5172C29.0387 15.2123 27.7468 16.1495 25.8088 16.1495C23.4163 16.1495 21.6459 14.4433 21.6459 11.1749C21.6459 7.95461 23.4163 6.24833 25.8088 6.24833C27.7468 6.24833 29.0626 7.25768 29.5172 8.84379H31.8618C31.1919 6.08011 29.0626 4.39786 25.8088 4.39786C22.0765 4.39786 19.4209 7.04139 19.4209 11.1749Z" fill="#48B190"/>
<path d="M33.4749 11.1509C33.4749 15.2363 36.1784 18 39.6715 18C42.0879 18 43.7866 16.7503 44.5761 15.3324V17.7837H46.7772V4.61415H44.5761V7.01736C43.8105 5.64753 42.1357 4.39786 39.6954 4.39786C36.1784 4.39786 33.4749 7.04139 33.4749 11.1509ZM44.5761 11.1749C44.5761 14.275 42.5185 16.0774 40.126 16.0774C37.7335 16.0774 35.6999 14.251 35.6999 11.1509C35.6999 8.05073 37.7335 6.29639 40.126 6.29639C42.5185 6.29639 44.5761 8.12283 44.5761 11.1749Z" fill="#48B190"/>
<path d="M49.9779 17.7837H52.155V0H49.9779V17.7837Z" fill="#48B190"/>
<path d="M67.0147 4.61415H64.8376V11.8478C64.8376 14.6836 63.3303 16.0774 61.0813 16.0774C58.8802 16.0774 57.4208 14.7076 57.4208 12.0401V4.61415H55.2676V12.3284C55.2676 16.1015 57.6361 17.976 60.6507 17.976C62.3972 17.976 64.0002 17.2069 64.8376 15.8371V17.7837H67.0147V4.61415Z" fill="#9BA1A1"/>
<path d="M79.6387 14.2029C79.543 9.49266 71.9348 11.1989 71.9348 8.07477C71.9348 7.01736 72.8918 6.24833 74.4948 6.24833C76.2413 6.24833 77.2462 7.20961 77.3419 8.53137H79.519C79.3755 5.95995 77.4615 4.39786 74.5666 4.39786C71.6477 4.39786 69.7577 6.05607 69.7577 8.07477C69.7577 12.9773 77.5094 11.271 77.5094 14.2029C77.5094 15.2844 76.5524 16.1495 74.8298 16.1495C72.9875 16.1495 71.8631 15.1883 71.7434 13.9146H69.4945C69.6381 16.3178 71.7913 18 74.8537 18C77.7486 18 79.6387 16.3658 79.6387 14.2029Z" fill="#9BA1A1"/>
<path d="M81.4201 11.1509C81.4201 15.2363 84.1237 18 87.6406 18C90.0331 18 91.7318 16.7744 92.5213 15.3084V17.7837H94.7224V0H92.5213V6.96929C91.6122 5.45527 89.7221 4.39786 87.6646 4.39786C84.1237 4.39786 81.4201 7.04139 81.4201 11.1509ZM92.5213 11.1749C92.5213 14.275 90.4638 16.0774 88.0713 16.0774C85.6788 16.0774 83.6452 14.251 83.6452 11.1509C83.6452 8.05073 85.6788 6.29639 88.0713 6.29639C90.4638 6.29639 92.5213 8.12283 92.5213 11.1749Z" fill="#9BA1A1"/>
<path d="M98.4016 14.1789C98.4016 16.8224 99.7175 17.7837 102.038 17.7837H104V15.9332H102.397C101.057 15.9332 100.579 15.4766 100.579 14.1789V6.41656H104V4.61415H100.579V1.29773H98.4016V4.61415H96.7029V6.41656H98.4016V14.1789Z" fill="#9BA1A1"/>
</svg>
