<svg width="91" height="18" viewBox="0 0 91 18" fill="none" xmlns="http://www.w3.org/2000/svg">
	<path d="M62.0008 6.24C64.2568 6.24 66.1768 7.656 66.1528 10.224H57.8488C58.0888 7.656 59.8648 6.24 62.0008 6.24ZM68.1448 13.704H65.7928C65.3128 15.12 64.0648 16.128 62.0968 16.128C59.8648 16.128 57.9928 14.664 57.8248 12H68.3368C68.3848 11.544 68.4088 11.16 68.4088 10.68C68.4088 7.08 65.9128 4.392 62.0968 4.392C58.2568 4.392 55.5928 7.008 55.5928 11.16C55.5928 15.336 58.3528 17.976 62.0968 17.976C65.3608 17.976 67.4728 16.104 68.1448 13.704Z" fill="#9BA1A1" />
	<path d="M72.9957 10.608C72.9957 7.56 74.5797 6.624 76.6677 6.624H77.2437V4.368C75.1557 4.368 73.7397 5.28 72.9957 6.744V4.608H70.8117V17.76H72.9957V10.608Z" fill="#9BA1A1" />
	<path d="M78.4688 11.16C78.4688 15.336 81.1328 17.976 84.8768 17.976C88.1408 17.976 90.2768 16.152 90.9488 13.536H88.5968C88.1168 15.192 86.8208 16.128 84.8768 16.128C82.4768 16.128 80.7008 14.424 80.7008 11.16C80.7008 7.944 82.4768 6.24 84.8768 6.24C86.8208 6.24 88.1408 7.248 88.5968 8.832H90.9488C90.2768 6.072 88.1408 4.392 84.8768 4.392C81.1328 4.392 78.4688 7.032 78.4688 11.16Z" fill="#9BA1A1" />
	<path d="M0.8479 17.76H3.0319V0H0.8479V17.76Z" fill="#9BA1A1" />
	<path d="M18.7542 11.16C18.7542 7.008 15.8502 4.392 12.1062 4.392C8.38615 4.392 5.45815 7.008 5.45815 11.16C5.45815 15.336 8.29015 17.976 12.0102 17.976C15.7542 17.976 18.7542 15.336 18.7542 11.16ZM7.69015 11.16C7.69015 7.848 9.77815 6.288 12.0822 6.288C14.3382 6.288 16.5222 7.848 16.5222 11.16C16.5222 14.496 14.2902 16.056 12.0102 16.056C9.73015 16.056 7.69015 14.496 7.69015 11.16Z" fill="#9BA1A1" />
	<path d="M20.3297 11.16C20.3297 15.336 22.9937 17.976 26.7377 17.976C30.0017 17.976 32.1377 16.152 32.8097 13.536H30.4577C29.9777 15.192 28.6817 16.128 26.7377 16.128C24.3377 16.128 22.5617 14.424 22.5617 11.16C22.5617 7.944 24.3377 6.24 26.7377 6.24C28.6817 6.24 30.0017 7.248 30.4577 8.832H32.8097C32.1377 6.072 30.0017 4.392 26.7377 4.392C22.9937 4.392 20.3297 7.032 20.3297 11.16Z" fill="#9BA1A1" />
	<path d="M34.4278 11.136C34.4278 15.216 37.1398 17.976 40.6438 17.976C43.0678 17.976 44.7718 16.728 45.5638 15.312V17.76H47.7718V4.608H45.5638V7.008C44.7958 5.64 43.1158 4.392 40.6678 4.392C37.1398 4.392 34.4278 7.032 34.4278 11.136ZM45.5638 11.16C45.5638 14.256 43.4998 16.056 41.0998 16.056C38.6998 16.056 36.6598 14.232 36.6598 11.136C36.6598 8.04 38.6998 6.288 41.0998 6.288C43.4998 6.288 45.5638 8.112 45.5638 11.16Z" fill="#9BA1A1" />
	<path d="M50.9826 17.76H53.1666V0H50.9826V17.76Z" fill="#9BA1A1" />
</svg>
