<svg width="17" height="17" viewBox="0 0 17 17" fill="none" xmlns="http://www.w3.org/2000/svg">
<path d="M11.3333 0C8.20878 0 5.66664 2.54213 5.66664 5.66668C5.66664 6.03882 5.70712 6.42065 5.78701 6.80422L5.15405 7.12068C5.05235 7.17151 4.98113 7.26836 4.9628 7.38076C4.94448 7.49315 4.9815 7.6073 5.06208 7.68788L5.52002 8.14582L5.16584 8.5H4.60414C4.40838 8.5 4.24997 8.65841 4.24997 8.85418V9.41588L3.74916 9.91668H3.1875C2.99173 9.91668 2.83332 10.0751 2.83332 10.2709V10.8326L2.33252 11.3333H1.77082C1.57506 11.3333 1.41664 11.4917 1.41664 11.6875V12.2492L0.10376 13.5621C0.0373535 13.6285 0 13.7184 0 13.8125V16.6458C0 16.8416 0.158412 17 0.354178 17H3.1875C3.28156 17 3.37151 16.9626 3.43792 16.8962L8.85418 11.48L9.31212 11.9379C9.39237 12.0185 9.50685 12.0562 9.61924 12.0372C9.73164 12.0189 9.82849 11.9476 9.87932 11.8459L10.1958 11.213C13.7994 11.9642 17 9.16337 17 5.66668C17 2.54213 14.4579 0 11.3333 0ZM7.68792 9.81292L2.72956 14.7712C2.6604 14.8404 2.56976 14.875 2.47914 14.875C2.38853 14.875 2.29792 14.8404 2.22873 14.7712C2.09037 14.6329 2.09037 14.4088 2.22873 14.2704L7.18705 9.31212C7.32541 9.17376 7.54953 9.17376 7.68785 9.31212C7.82624 9.45044 7.82624 9.67456 7.68792 9.81292ZM13.1042 5.66668C12.1278 5.66668 11.3334 4.87223 11.3334 3.89586C11.3334 2.91948 12.1278 2.125 13.1042 2.125C14.0806 2.125 14.875 2.91945 14.875 3.89582C14.875 4.87219 14.0805 5.66668 13.1042 5.66668Z" fill="#48B190"/>
</svg>
