<svg width="11" height="13" viewBox="0 0 11 13" fill="none" xmlns="http://www.w3.org/2000/svg">
<path d="M0.101562 2.8125C0.101562 2.13021 0.317708 1.56771 0.75 1.125C1.1875 0.682292 1.7474 0.460938 2.42969 0.460938C3.1224 0.460938 3.68229 0.684896 4.10938 1.13281C4.54167 1.57552 4.75781 2.15104 4.75781 2.85938V3.41406C4.75781 4.10156 4.53906 4.66406 4.10156 5.10156C3.66927 5.53385 3.11719 5.75 2.44531 5.75C1.76823 5.75 1.20833 5.53385 0.765625 5.10156C0.322917 4.66406 0.101562 4.08333 0.101562 3.35938V2.8125ZM1.17969 3.41406C1.17969 3.82031 1.29427 4.15625 1.52344 4.42188C1.7526 4.68229 2.0599 4.8125 2.44531 4.8125C2.8151 4.8125 3.11198 4.6849 3.33594 4.42969C3.5651 4.17448 3.67969 3.82552 3.67969 3.38281V2.8125C3.67969 2.40625 3.56771 2.07031 3.34375 1.80469C3.11979 1.53906 2.8151 1.40625 2.42969 1.40625C2.04427 1.40625 1.73958 1.53906 1.51562 1.80469C1.29167 2.07031 1.17969 2.41667 1.17969 2.84375V3.41406ZM5.64062 9.21094C5.64062 8.52865 5.85677 7.96875 6.28906 7.53125C6.72656 7.08854 7.28646 6.86719 7.96875 6.86719C8.65104 6.86719 9.21094 7.08594 9.64844 7.52344C10.0859 7.96094 10.3047 8.54167 10.3047 9.26562V9.82031C10.3047 10.5026 10.0859 11.0651 9.64844 11.5078C9.21615 11.9453 8.66146 12.1641 7.98438 12.1641C7.30729 12.1641 6.7474 11.9479 6.30469 11.5156C5.86198 11.0781 5.64062 10.4974 5.64062 9.77344V9.21094ZM6.71875 9.82031C6.71875 10.2318 6.83333 10.5703 7.0625 10.8359C7.29167 11.0964 7.59896 11.2266 7.98438 11.2266C8.35938 11.2266 8.65885 11.099 8.88281 10.8438C9.10677 10.5833 9.21875 10.2318 9.21875 9.78906V9.21094C9.21875 8.79948 9.10417 8.46354 8.875 8.20312C8.65104 7.94271 8.34896 7.8125 7.96875 7.8125C7.59896 7.8125 7.29688 7.94271 7.0625 8.20312C6.83333 8.45833 6.71875 8.80469 6.71875 9.24219V9.82031ZM2.77344 11.1406L1.95312 10.625L7.50781 1.73438L8.32812 2.25L2.77344 11.1406Z" fill="#11171D" fill-opacity="0.5"/>
</svg>
