<svg width="157" height="147" viewBox="0 0 157 137" fill="none" xmlns="http://www.w3.org/2000/svg">
<path d="M75 0C62.7376 0 50.7505 3.63623 40.5547 10.4489C30.3588 17.2615 22.4121 26.9446 17.7195 38.2736C13.0269 49.6027 11.7991 62.0688 14.1913 74.0956C16.5836 86.1224 22.4886 97.1698 31.1594 105.841C39.8303 114.512 50.8776 120.416 62.9044 122.809C74.9313 125.201 87.3974 123.973 98.7264 119.281C110.055 114.588 119.739 106.641 126.551 96.4454C133.364 86.2495 137 74.2625 137 62C136.98 45.5626 130.442 29.8041 118.819 18.1811C107.196 6.55814 91.4374 0.0196894 75 0ZM128.527 57.8667H120.26C119.773 52.716 118.417 47.6849 116.251 42.9867L123.401 38.812C126.269 44.7935 128.007 51.2536 128.527 57.8667ZM105.339 17.6907C110.804 21.4617 115.538 26.1957 119.309 31.6613L112.117 35.7947C109.104 31.5827 105.417 27.896 101.205 24.8827L105.339 17.6907ZM79.1334 8.47333C85.7465 8.993 92.2066 10.7306 98.188 13.5987L94.0134 20.7493C89.3152 18.5827 84.2841 17.2271 79.1334 16.74V8.47333ZM70.8667 8.47333V16.74C65.716 17.2271 60.6849 18.5827 55.9867 20.7493L51.812 13.5987C57.7935 10.7306 64.2536 8.993 70.8667 8.47333ZM44.6614 17.6907L48.7947 24.8827C44.5827 27.896 40.896 31.5827 37.8827 35.7947L30.6907 31.6613C34.4617 26.1957 39.1957 21.4617 44.6614 17.6907ZM26.5987 38.812L33.7494 42.9867C31.5827 47.6849 30.2271 52.716 29.74 57.8667H21.4734C21.993 51.2536 23.7307 44.7935 26.5987 38.812ZM21.4734 66.1334H29.74C30.2271 71.2841 31.5827 76.3152 33.7494 81.0134L26.5987 85.188C23.7307 79.2066 21.993 72.7465 21.4734 66.1334ZM44.6614 106.309C39.1957 102.538 34.4617 97.8044 30.6907 92.3387L37.8827 88.2054C40.896 92.4174 44.5827 96.1041 48.7947 99.1174L44.6614 106.309ZM70.8667 115.527C64.2536 115.007 57.7935 113.269 51.812 110.401L55.9867 103.251C60.6849 105.417 65.716 106.773 70.8667 107.26V115.527ZM37.8 62C37.8 54.6426 39.9818 47.4503 44.0694 41.3328C48.157 35.2153 53.9668 30.4473 60.7642 27.6317C67.5616 24.8161 75.0413 24.0794 82.2574 25.5148C89.4735 26.9502 96.1019 30.4931 101.304 35.6956C106.507 40.8982 110.05 47.5266 111.485 54.7427C112.921 61.9588 112.184 69.4384 109.368 76.2358C106.553 83.0333 101.785 88.8431 95.6673 92.9307C89.5498 97.0183 82.3575 99.2 75 99.2C65.1387 99.1847 55.6856 95.2605 48.7126 88.2875C41.7395 81.3145 37.8153 71.8614 37.8 62ZM79.1334 115.527V107.26C84.2841 106.773 89.3152 105.417 94.0134 103.251L98.188 110.401C92.2066 113.269 85.7465 115.007 79.1334 115.527ZM105.339 106.309L101.205 99.1174C105.417 96.1041 109.104 92.4174 112.117 88.2054L119.309 92.3387C115.538 97.8044 110.804 102.538 105.339 106.309ZM123.401 85.188L116.251 81.0134C118.417 76.3152 119.773 71.2841 120.26 66.1334H128.527C128.007 72.7465 126.269 79.2066 123.401 85.188Z" fill="#11171D" fill-opacity="0.1"/>
<path d="M70.9344 57.0887V52.2985H59.7247V45H90.249V52.2985H79.038V57.0848C88.1492 57.4937 95 59.257 95 61.3694C95 63.4817 88.1459 65.245 79.038 65.6565V81H70.9317V65.6552C61.8369 65.245 55 63.483 55 61.3726C55 59.2622 61.8369 57.5002 70.9317 57.0899L70.9344 57.0887ZM70.9317 64.3556V64.3518C71.1604 64.3659 72.3355 64.4349 74.9519 64.4349C77.0437 64.4349 78.5153 64.3769 79.034 64.3505V64.3569C87.0836 64.0085 93.0921 62.6387 93.0921 60.9997C93.0921 59.3607 87.0829 57.9928 79.034 57.6438V62.9923C78.5068 63.0277 76.9989 63.1146 74.9176 63.1146C72.4179 63.1146 71.1611 63.0129 70.9304 62.9923V57.6438C62.8967 57.9935 56.902 59.3646 56.902 60.9978C56.902 62.631 62.8993 64.0027 70.9304 64.3524" fill="#E7E8E8"/>
<path d="M155.151 85.3421L140.952 71.1432C140.67 70.8584 140.308 70.6651 139.914 70.5884C139.52 70.5117 139.113 70.5551 138.744 70.7129C138.373 70.8643 138.055 71.1222 137.83 71.454C137.606 71.7858 137.484 72.1767 137.482 72.5774L137.482 78.6586L91.1847 78.6586C90.6489 78.6601 90.1354 78.8737 89.7565 79.2526C89.3776 79.6315 89.1641 80.145 89.1625 80.6808L89.1625 92.8717C89.1646 93.4038 89.3758 93.9138 89.7505 94.2916C90.1325 94.6706 90.6467 94.8866 91.1847 94.894L137.482 94.894L137.482 100.975C137.484 101.376 137.606 101.767 137.83 102.099C138.055 102.43 138.373 102.688 138.744 102.84C139.113 102.997 139.52 103.041 139.914 102.964C140.308 102.887 140.67 102.694 140.952 102.409L155.151 88.2105C155.532 87.8301 155.745 87.3142 155.745 86.7763C155.745 86.2383 155.532 85.7224 155.151 85.3421Z" fill="#ED9F43"/>
</svg>
