<svg width="157" height="177" viewBox="0 0 157 177" fill="none" xmlns="http://www.w3.org/2000/svg">
<g opacity="0.5">
<path d="M19.8711 172H17.4102V159.773H11.1504V172H8.68945V157.781H19.8711V172ZM31.8828 166.824C31.8828 168.458 31.5117 169.764 30.7695 170.74C30.0273 171.71 29.0312 172.195 27.7812 172.195C26.6224 172.195 25.6947 171.814 24.998 171.053V176.062H22.625V161.434H24.8125L24.9102 162.508C25.6068 161.661 26.554 161.238 27.752 161.238C29.041 161.238 30.0501 161.72 30.7793 162.684C31.515 163.641 31.8828 164.972 31.8828 166.678V166.824ZM29.5195 166.619C29.5195 165.564 29.3079 164.728 28.8848 164.109C28.4681 163.491 27.8691 163.182 27.0879 163.182C26.1178 163.182 25.4212 163.582 24.998 164.383V169.07C25.4277 169.891 26.1309 170.301 27.1074 170.301C27.8626 170.301 28.4518 169.998 28.875 169.393C29.3047 168.781 29.5195 167.856 29.5195 166.619ZM33.4551 166.619C33.4551 165.584 33.6602 164.653 34.0703 163.826C34.4805 162.993 35.0566 162.355 35.7988 161.912C36.541 161.463 37.3939 161.238 38.3574 161.238C39.7832 161.238 40.9388 161.697 41.8242 162.615C42.7161 163.533 43.1979 164.751 43.2695 166.268L43.2793 166.824C43.2793 167.866 43.0775 168.797 42.6738 169.617C42.2767 170.438 41.7038 171.072 40.9551 171.521C40.2129 171.971 39.3535 172.195 38.377 172.195C36.8861 172.195 35.6914 171.701 34.793 170.711C33.901 169.715 33.4551 168.39 33.4551 166.736V166.619ZM35.8281 166.824C35.8281 167.911 36.0527 168.764 36.502 169.383C36.9512 169.995 37.5762 170.301 38.377 170.301C39.1777 170.301 39.7995 169.988 40.2422 169.363C40.6914 168.738 40.916 167.824 40.916 166.619C40.916 165.551 40.6849 164.705 40.2227 164.08C39.7669 163.455 39.1452 163.143 38.3574 163.143C37.5827 163.143 36.9674 163.452 36.5117 164.07C36.056 164.682 35.8281 165.6 35.8281 166.824ZM44.627 170.105C45.2845 169.37 45.724 168.673 45.9453 168.016C46.1732 167.352 46.3099 166.505 46.3555 165.477L46.4922 161.434H53.8262V170.105H55.291V175.145H52.9277V172H46.1504V175.145H43.748L43.7578 170.105H44.627ZM47.4102 170.105H51.4629V163.475H48.7969L48.7285 165.496C48.6374 167.436 48.1979 168.973 47.4102 170.105ZM63.2988 172C63.1947 171.798 63.1035 171.469 63.0254 171.014C62.2702 171.801 61.3457 172.195 60.252 172.195C59.1908 172.195 58.3249 171.893 57.6543 171.287C56.9837 170.682 56.6484 169.933 56.6484 169.041C56.6484 167.915 57.0651 167.052 57.8984 166.453C58.7383 165.848 59.9362 165.545 61.4922 165.545H62.9473V164.852C62.9473 164.305 62.7943 163.868 62.4883 163.543C62.1823 163.211 61.7168 163.045 61.0918 163.045C60.5514 163.045 60.1087 163.182 59.7637 163.455C59.4186 163.722 59.2461 164.064 59.2461 164.48H56.873C56.873 163.901 57.0651 163.361 57.4492 162.859C57.8333 162.352 58.3542 161.954 59.0117 161.668C59.6758 161.382 60.4147 161.238 61.2285 161.238C62.4655 161.238 63.4518 161.551 64.1875 162.176C64.9232 162.794 65.3008 163.667 65.3203 164.793V169.559C65.3203 170.509 65.4538 171.268 65.7207 171.834V172H63.2988ZM60.6914 170.291C61.1602 170.291 61.5996 170.177 62.0098 169.949C62.4264 169.721 62.7389 169.415 62.9473 169.031V167.039H61.668C60.7891 167.039 60.1283 167.192 59.6855 167.498C59.2428 167.804 59.0215 168.237 59.0215 168.797C59.0215 169.253 59.1712 169.617 59.4707 169.891C59.7767 170.158 60.1836 170.291 60.6914 170.291ZM75.9648 163.318H72.5371V172H70.1641V163.318H66.7754V161.434H75.9648V163.318ZM80.1055 164.793H82.4297C83.2956 164.793 84.0508 164.943 84.6953 165.242C85.3398 165.542 85.8281 165.962 86.1602 166.502C86.4987 167.042 86.668 167.671 86.668 168.387C86.668 169.474 86.2839 170.346 85.5156 171.004C84.7474 171.661 83.7253 171.993 82.4492 172H77.7324V161.434H80.1055V164.793ZM80.1055 166.697V170.105H82.4199C82.9993 170.105 83.4551 169.962 83.7871 169.676C84.1257 169.383 84.2949 168.969 84.2949 168.436C84.2949 167.902 84.1289 167.482 83.7969 167.176C83.4714 166.863 83.0286 166.704 82.4688 166.697H80.1055ZM104.178 157.781V167.283C104.178 168.794 103.693 169.992 102.723 170.877C101.759 171.756 100.473 172.195 98.8652 172.195C97.2376 172.195 95.9453 171.762 94.9883 170.896C94.0312 170.024 93.5527 168.816 93.5527 167.273V157.781H96.0137V167.293C96.0137 168.243 96.2546 168.969 96.7363 169.471C97.2181 169.972 97.9277 170.223 98.8652 170.223C100.766 170.223 101.717 169.22 101.717 167.215V157.781H104.178ZM114.256 168.338C114.256 167.713 114.035 167.231 113.592 166.893C113.156 166.554 112.365 166.212 111.219 165.867C110.073 165.522 109.161 165.138 108.484 164.715C107.189 163.901 106.541 162.84 106.541 161.531C106.541 160.385 107.007 159.441 107.938 158.699C108.875 157.957 110.089 157.586 111.58 157.586C112.57 157.586 113.452 157.768 114.227 158.133C115.001 158.497 115.61 159.018 116.053 159.695C116.495 160.366 116.717 161.111 116.717 161.932H114.256C114.256 161.189 114.021 160.61 113.553 160.193C113.09 159.77 112.426 159.559 111.561 159.559C110.753 159.559 110.125 159.731 109.676 160.076C109.233 160.421 109.012 160.903 109.012 161.521C109.012 162.042 109.253 162.479 109.734 162.83C110.216 163.175 111.01 163.514 112.117 163.846C113.224 164.171 114.113 164.546 114.783 164.969C115.454 165.385 115.945 165.867 116.258 166.414C116.57 166.954 116.727 167.589 116.727 168.318C116.727 169.503 116.271 170.447 115.359 171.15C114.454 171.847 113.224 172.195 111.668 172.195C110.639 172.195 109.692 172.007 108.826 171.629C107.967 171.245 107.296 170.717 106.814 170.047C106.339 169.376 106.102 168.595 106.102 167.703H108.572C108.572 168.51 108.839 169.135 109.373 169.578C109.907 170.021 110.672 170.242 111.668 170.242C112.527 170.242 113.172 170.07 113.602 169.725C114.038 169.373 114.256 168.911 114.256 168.338ZM118.895 172V157.781H123.094C124.35 157.781 125.464 158.061 126.434 158.621C127.41 159.181 128.165 159.975 128.699 161.004C129.233 162.033 129.5 163.211 129.5 164.539V165.252C129.5 166.6 129.23 167.785 128.689 168.807C128.156 169.829 127.391 170.617 126.395 171.17C125.405 171.723 124.269 172 122.986 172H118.895ZM121.365 159.773V170.027H122.977C124.272 170.027 125.265 169.624 125.955 168.816C126.652 168.003 127.007 166.837 127.02 165.32V164.529C127.02 162.986 126.684 161.808 126.014 160.994C125.343 160.18 124.37 159.773 123.094 159.773H121.365ZM141.395 159.773H136.961V172H134.51V159.773H130.115V157.781H141.395V159.773Z" fill="#11171D"/>
</g>
<path d="M75 0C62.7376 0 50.7505 3.63623 40.5547 10.4489C30.3588 17.2615 22.4121 26.9446 17.7195 38.2736C13.0269 49.6027 11.7991 62.0688 14.1913 74.0956C16.5836 86.1224 22.4886 97.1698 31.1594 105.841C39.8303 114.512 50.8776 120.416 62.9044 122.809C74.9313 125.201 87.3974 123.973 98.7264 119.281C110.055 114.588 119.739 106.641 126.551 96.4454C133.364 86.2495 137 74.2625 137 62C136.98 45.5626 130.442 29.8041 118.819 18.1811C107.196 6.55814 91.4374 0.0196894 75 0ZM128.527 57.8667H120.26C119.773 52.716 118.417 47.6849 116.251 42.9867L123.401 38.812C126.269 44.7935 128.007 51.2536 128.527 57.8667ZM105.339 17.6907C110.804 21.4617 115.538 26.1957 119.309 31.6613L112.117 35.7947C109.104 31.5827 105.417 27.896 101.205 24.8827L105.339 17.6907ZM79.1334 8.47333C85.7465 8.993 92.2066 10.7306 98.188 13.5987L94.0134 20.7493C89.3152 18.5827 84.2841 17.2271 79.1334 16.74V8.47333ZM70.8667 8.47333V16.74C65.716 17.2271 60.6849 18.5827 55.9867 20.7493L51.812 13.5987C57.7935 10.7306 64.2536 8.993 70.8667 8.47333ZM44.6614 17.6907L48.7947 24.8827C44.5827 27.896 40.896 31.5827 37.8827 35.7947L30.6907 31.6613C34.4617 26.1957 39.1957 21.4617 44.6614 17.6907ZM26.5987 38.812L33.7494 42.9867C31.5827 47.6849 30.2271 52.716 29.74 57.8667H21.4734C21.993 51.2536 23.7307 44.7935 26.5987 38.812ZM21.4734 66.1334H29.74C30.2271 71.2841 31.5827 76.3152 33.7494 81.0134L26.5987 85.188C23.7307 79.2066 21.993 72.7465 21.4734 66.1334ZM44.6614 106.309C39.1957 102.538 34.4617 97.8044 30.6907 92.3387L37.8827 88.2054C40.896 92.4174 44.5827 96.1041 48.7947 99.1174L44.6614 106.309ZM70.8667 115.527C64.2536 115.007 57.7935 113.269 51.812 110.401L55.9867 103.251C60.6849 105.417 65.716 106.773 70.8667 107.26V115.527ZM37.8 62C37.8 54.6426 39.9818 47.4503 44.0694 41.3328C48.157 35.2153 53.9668 30.4473 60.7642 27.6317C67.5616 24.8161 75.0413 24.0794 82.2574 25.5148C89.4735 26.9502 96.1019 30.4931 101.304 35.6956C106.507 40.8982 110.05 47.5266 111.485 54.7427C112.921 61.9588 112.184 69.4384 109.368 76.2358C106.553 83.0333 101.785 88.8431 95.6673 92.9307C89.5498 97.0183 82.3575 99.2 75 99.2C65.1387 99.1847 55.6856 95.2605 48.7126 88.2875C41.7395 81.3145 37.8153 71.8614 37.8 62ZM79.1334 115.527V107.26C84.2841 106.773 89.3152 105.417 94.0134 103.251L98.188 110.401C92.2066 113.269 85.7465 115.007 79.1334 115.527ZM105.339 106.309L101.205 99.1174C105.417 96.1041 109.104 92.4174 112.117 88.2054L119.309 92.3387C115.538 97.8044 110.804 102.538 105.339 106.309ZM123.401 85.188L116.251 81.0134C118.417 76.3152 119.773 71.2841 120.26 66.1334H128.527C128.007 72.7465 126.269 79.2066 123.401 85.188Z" fill="#11171D" fill-opacity="0.1"/>
<path d="M70.9344 57.0887V52.2985H59.7247V45H90.249V52.2985H79.038V57.0848C88.1492 57.4937 95 59.257 95 61.3694C95 63.4817 88.1459 65.245 79.038 65.6565V81H70.9317V65.6552C61.8369 65.245 55 63.483 55 61.3726C55 59.2622 61.8369 57.5002 70.9317 57.0899L70.9344 57.0887ZM70.9317 64.3556V64.3518C71.1604 64.3659 72.3355 64.4349 74.9519 64.4349C77.0437 64.4349 78.5153 64.3769 79.034 64.3505V64.3569C87.0836 64.0085 93.0921 62.6387 93.0921 60.9997C93.0921 59.3607 87.0829 57.9928 79.034 57.6438V62.9923C78.5068 63.0277 76.9989 63.1146 74.9176 63.1146C72.4179 63.1146 71.1611 63.0129 70.9304 62.9923V57.6438C62.8967 57.9935 56.902 59.3646 56.902 60.9978C56.902 62.631 62.8993 64.0027 70.9304 64.3524" fill="#E7E8E8"/>
<path d="M155.151 85.3421L140.952 71.1432C140.67 70.8584 140.308 70.6651 139.914 70.5884C139.52 70.5117 139.113 70.5551 138.744 70.7129C138.373 70.8643 138.055 71.1222 137.83 71.454C137.606 71.7858 137.484 72.1767 137.482 72.5774L137.482 78.6586L91.1847 78.6586C90.6489 78.6601 90.1354 78.8737 89.7565 79.2526C89.3776 79.6315 89.1641 80.145 89.1625 80.6808L89.1625 92.8717C89.1646 93.4038 89.3758 93.9138 89.7505 94.2916C90.1325 94.6706 90.6467 94.8866 91.1847 94.894L137.482 94.894L137.482 100.975C137.484 101.376 137.606 101.767 137.83 102.099C138.055 102.43 138.373 102.688 138.744 102.84C139.113 102.997 139.52 103.041 139.914 102.964C140.308 102.887 140.67 102.694 140.952 102.409L155.151 88.2105C155.532 87.8301 155.745 87.3142 155.745 86.7763C155.745 86.2383 155.532 85.7224 155.151 85.3421Z" fill="#ED9F43"/>
</svg>
