<svg width="13" height="15" viewBox="0 0 13 15" fill="none" xmlns="http://www.w3.org/2000/svg">
<path d="M12.5357 0.9375H9.05357L8.76339 0.410156C8.64732 0.175781 8.38616 0 8.15402 0H4.81696C4.58482 0 4.29464 0.175781 4.20759 0.410156L3.94643 0.9375H0.464286C0.203125 0.9375 0 1.17188 0 1.40625V2.34375C0 2.60742 0.203125 2.8125 0.464286 2.8125H12.5357C12.7679 2.8125 13 2.60742 13 2.34375V1.40625C13 1.17188 12.7679 0.9375 12.5357 0.9375ZM1.53795 13.6816C1.56696 14.4141 2.20536 15 2.9308 15H10.0402C10.7656 15 11.404 14.4141 11.433 13.6816L12.0714 3.75H0.928571L1.53795 13.6816Z" fill="currentColor"/>
</svg>
