<svg width="39" height="13" viewBox="0 0 39 13" fill="none" xmlns="http://www.w3.org/2000/svg">
<path d="M8.625 0.625V8.35938C8.61979 9.43229 8.28125 10.3099 7.60938 10.9922C6.94271 11.6745 6.03646 12.0573 4.89062 12.1406L4.49219 12.1562C3.2474 12.1562 2.25521 11.8203 1.51562 11.1484C0.776042 10.4766 0.401042 9.55208 0.390625 8.375V0.625H1.875V8.32812C1.875 9.15104 2.10156 9.79167 2.55469 10.25C3.00781 10.7031 3.65365 10.9297 4.49219 10.9297C5.34115 10.9297 5.98958 10.7031 6.4375 10.25C6.89062 9.79688 7.11719 9.15885 7.11719 8.33594V0.625H8.625ZM14.3438 6.92969C13.0573 6.5599 12.1198 6.10677 11.5312 5.57031C10.9479 5.02865 10.6562 4.36198 10.6562 3.57031C10.6562 2.67448 11.013 1.9349 11.7266 1.35156C12.4453 0.763021 13.3776 0.46875 14.5234 0.46875C15.3047 0.46875 16 0.619792 16.6094 0.921875C17.224 1.22396 17.6979 1.64062 18.0312 2.17188C18.3698 2.70312 18.5391 3.28385 18.5391 3.91406H17.0312C17.0312 3.22656 16.8125 2.6875 16.375 2.29688C15.9375 1.90104 15.3203 1.70312 14.5234 1.70312C13.7839 1.70312 13.2057 1.86719 12.7891 2.19531C12.3776 2.51823 12.1719 2.96875 12.1719 3.54688C12.1719 4.01042 12.3672 4.40365 12.7578 4.72656C13.1536 5.04427 13.8229 5.33594 14.7656 5.60156C15.7135 5.86719 16.4531 6.16146 16.9844 6.48438C17.5208 6.80208 17.9167 7.17448 18.1719 7.60156C18.4323 8.02865 18.5625 8.53125 18.5625 9.10938C18.5625 10.0312 18.2031 10.7708 17.4844 11.3281C16.7656 11.8802 15.8047 12.1562 14.6016 12.1562C13.8203 12.1562 13.0911 12.0078 12.4141 11.7109C11.737 11.4089 11.2135 10.9974 10.8438 10.4766C10.4792 9.95573 10.2969 9.36458 10.2969 8.70312H11.8047C11.8047 9.39062 12.0573 9.9349 12.5625 10.3359C13.0729 10.7318 13.7526 10.9297 14.6016 10.9297C15.3932 10.9297 16 10.7682 16.4219 10.4453C16.8438 10.1224 17.0547 9.68229 17.0547 9.125C17.0547 8.56771 16.8594 8.13802 16.4688 7.83594C16.0781 7.52865 15.3698 7.22656 14.3438 6.92969ZM20.4922 12V0.625H23.7031C24.6927 0.625 25.5677 0.84375 26.3281 1.28125C27.0885 1.71875 27.6745 2.34115 28.0859 3.14844C28.5026 3.95573 28.7135 4.88281 28.7188 5.92969V6.65625C28.7188 7.72917 28.5104 8.66927 28.0938 9.47656C27.6823 10.2839 27.0911 10.9036 26.3203 11.3359C25.5547 11.7682 24.6615 11.9896 23.6406 12H20.4922ZM21.9922 1.85938V10.7734H23.5703C24.7266 10.7734 25.625 10.4141 26.2656 9.69531C26.9115 8.97656 27.2344 7.95312 27.2344 6.625V5.96094C27.2344 4.66927 26.9297 3.66667 26.3203 2.95312C25.7161 2.23438 24.8568 1.86979 23.7422 1.85938H21.9922ZM38.6328 1.85938H34.9766V12H33.4844V1.85938H29.8359V0.625H38.6328V1.85938Z" fill="#11171D" fill-opacity="0.5"/>
</svg>
