<svg width="15" height="17" viewBox="0 0 15 17" fill="none" xmlns="http://www.w3.org/2000/svg">
<path d="M7.5 0C5.02839 0 3.01758 2.01081 3.01758 4.48242C3.01758 6.95403 5.02839 8.96484 7.5 8.96484C9.97161 8.96484 11.9824 6.95403 11.9824 4.48242C11.9824 2.01081 9.97161 0 7.5 0Z" fill="#48B190"/>
<path d="M13.077 11.8932C11.8498 10.6471 10.223 9.96094 8.49609 9.96094H6.50391C4.77708 9.96094 3.15019 10.6471 1.923 11.8932C0.701826 13.1331 0.0292969 14.7698 0.0292969 16.502C0.0292969 16.777 0.252289 17 0.527344 17H14.4727C14.7477 17 14.9707 16.777 14.9707 16.502C14.9707 14.7698 14.2982 13.1331 13.077 11.8932Z" fill="#48B190"/>
</svg>
